<svg width="12" height="12" viewBox="0 0 12 12" fill="none" xmlns="http://www.w3.org/2000/svg">
<path fill-rule="evenodd" clip-rule="evenodd" d="M5.64909 0.000190234C6.86823 -0.0189912 7.56606 1.41721 8.58013 2.12352C9.65592 2.87282 11.2127 3.0388 11.7643 4.25948C12.3271 5.5051 11.7566 6.95493 11.356 8.26708C10.9531 9.58692 10.6487 11.1875 9.46063 11.8058C8.28336 12.4185 6.95544 11.4 5.64909 11.2373C4.55776 11.1014 3.42227 11.4587 2.44587 10.9323C1.37676 10.3559 0.349922 9.44539 0.0636671 8.22588C-0.217139 7.02959 0.492235 5.869 0.995891 4.75508C1.43607 3.78154 2.04448 2.96795 2.78158 2.21475C3.65248 1.32481 4.43017 0.0193681 5.64909 0.000190234Z" fill="#033FFF"/>
</svg>
